PathFileType	4	(X/Y/Z)	2_1_44_p0_0-259_filt_butterworth.trc
DataRate	CameraRate	NumFrames	NumMarkers	Units	OrigDataRate	OrigDataStartFrame	OrigNumFrames
60.0	60.0	6	27	m	60.0	194	259
Frame#	Time	RHip			RKnee			RAnkle			RBigToe			RSmallToe			RHeel			LHip			LKnee			LAnkle			LBigToe			LSmallToe			LHeel			Neck			Head			Nose			RShoulder			RElbow			RWrist			RThumb			RIndex			RPinky			LShoulder			LElbow			LWrist			LThumb			LIndex			LPinky			
		X1	Y1	Z1	X2	Y2	Z2	X3	Y3	Z3	X4	Y4	Z4	X5	Y5	Z5	X6	Y6	Z6	X7	Y7	Z7	X8	Y8	Z8	X9	Y9	Z9	X10	Y10	Z10	X11	Y11	Z11	X12	Y12	Z12	X13	Y13	Z13	X14	Y14	Z14	X15	Y15	Z15	X16	Y16	Z16	X17	Y17	Z17	X18	Y18	Z18	X19	Y19	Z19	X20	Y20	Z20	X21	Y21	Z21	X22	Y22	Z22	X23	Y23	Z23	X24	Y24	Z24	X25	Y25	Z25	X26	Y26	Z26	X27	Y27	Z27	
194	3.2333333333333334	0.3442676213187801	0.7551490446310608	0.7234250035450972	0.33801179973183954	0.3068983697526993	0.7782155851086335	0.2976067972982426	-0.1208408409076621	0.9079022104388472	0.30134246724316127	-0.13776334560744902	0.6633622566005594	0.3534255325101203	-0.1614719064180164	0.7292585688433421	0.2803111422640395	-0.15365121424159747	0.9218962033341862	0.1397293627869636	0.7410061356651337	0.7139583902572597	0.1286259655890999	0.30797110786485593	0.7749906700824867	0.10224055071663699	-0.11385435757248859	0.849723743954531	0.12286307663951793	-0.18853256178787664	0.704958271197743	0.07393017470766142	-0.14491493857529883	0.6885480453675671	0.116866595482607	-0.17869553795825893	0.9219546442654714	0.23892673819876248	1.3575729572825253	0.698222510893487	0.24469251185989804	1.610888298481854	0.5937409303661914	0.2521747746181615	1.497832153708043	0.5689106257043266	0.40833242100448186	1.2622303740492895	0.7193432698669239	0.47638332997488264	0.9882812470566701	0.825554552150891	0.4908994101063495	0.7574160082467889	0.6592991246000478	0.4569641155916271	0.6644546030001454	0.5947476890394645	0.46725082842727894	0.632117657383059	0.6173483375500693	0.4536591081709563	0.6182994642024708	0.7094933781541578	0.08026110204272968	1.2540651107335636	0.6878189693151837	0.02289027132856675	0.9724629518683706	0.7670810634190156	-0.019842063854290413	0.717225282076303	0.6612373583353124	0.012843250007691733	0.619037740363422	0.6344816475406214	-0.010881907994057652	0.6001530483427444	0.6306073043467718	-0.012979349782596898	0.5893700081530733	0.6688774117365812	
195	3.25	0.34361505930947145	0.755643640243912	0.7221519451414997	0.3375421804754912	0.3064721102152195	0.779048695451663	0.2968233178948109	-0.12111960082307566	0.9088451845098271	0.30229189069312645	-0.13700750833790423	0.6615713414689394	0.35392614756443697	-0.1625228389559694	0.7313778105878895	0.2802306429413487	-0.15324441824079493	0.9219556921862185	0.13851115031062916	0.741342606221926	0.7114608526575648	0.12863086110875946	0.3090955859929729	0.7735363642109641	0.10194200096931952	-0.11452472796337222	0.8492715622122349	0.12423918689199566	-0.18715629102773704	0.701859524836369	0.07412677248025061	-0.14488743000930676	0.6880179025560883	0.11636837328786884	-0.17909657974834675	0.9215506431767493	0.23656096040991764	1.3568737268084141	0.6973560882878711	0.24239864676596895	1.6099820679234929	0.5916070303665926	0.2507790514812163	1.497592108097533	0.5666074928928962	0.4084469939842772	1.2629578125514334	0.7193944749420498	0.4757260718423858	0.9891849632183225	0.8271171859155716	0.4878005785970635	0.7590186295179792	0.6563613226897466	0.45323216435638314	0.6686627429291514	0.583616514101295	0.4629495973347439	0.6364909616947981	0.6046843353524674	0.4525730861871503	0.6203188984513192	0.7066495647845333	0.07872278119521572	1.2539911597722808	0.6879953570539272	0.021541140515660764	0.9731990417551118	0.7645934117872794	-0.019369679809874085	0.7170678092776521	0.6564201537137822	0.01898901554735439	0.6227312715635127	0.6192962478284992	-0.007739413925148251	0.606394837610859	0.6096070921510406	-0.012333924622422665	0.5904007652512621	0.6628738713763422	
196	3.2666666666666666	0.3429193015668003	0.75620601095469	0.7210559967866816	0.3370986178090772	0.30639925748150487	0.7796416509687577	0.29609015662930793	-0.12123927737937604	0.9096616553485213	0.30292844143266484	-0.13674730450697672	0.6610434730345223	0.3545970658321642	-0.1639496757918233	0.7343993903537999	0.28014187442737815	-0.15279819841488868	0.9220265864258039	0.1372752009852301	0.7419721479630085	0.7092454380543196	0.1283735582655901	0.3104262448128666	0.7718979405634796	0.10160293771742078	-0.11505867675633505	0.849139247985806	0.12543273831927357	-0.18551350040546202	0.6989826386947077	0.07485464333687042	-0.14383978297088915	0.68659510118719	0.1158885569287348	-0.17949921517123274	0.9212276752179865	0.2341067241604044	1.3561375316269613	0.6962680826654387	0.24009848817290405	1.6092991289846033	0.5914347045172071	0.24931674542237126	1.4971556294692716	0.565365641672553	0.4083601261904639	1.263513484850465	0.7195936532358791	0.47554397080789523	0.9904419143139225	0.8275553655920146	0.4845118609338428	0.7602372065902161	0.653984577954207	0.4498602655403713	0.6728925479830539	0.5735447199749291	0.45868087691467124	0.6408345007743301	0.591953482842825	0.4502509667946533	0.6220950557578736	0.7038410689870591	0.07730476165497846	1.253596701199262	0.68817483777964	0.0198837133519645	0.9738088979221277	0.7609293380177727	-0.018421818458361435	0.7178812072825144	0.6507858448044344	0.02520669995419288	0.627754068629201	0.6027479996476	-0.0029966696150485837	0.6136814049305329	0.5858684757519692	-0.011705276989777864	0.592419821776935	0.6553354656097345	
197	3.283333333333333	0.34222531367760717	0.7568961928726501	0.7202431666891419	0.3367321315768154	0.3065367191859029	0.7799674204047163	0.2954287184737956	-0.12118511618516249	0.9103135973599349	0.30321730262594426	-0.13691235277123714	0.6616900148734266	0.3551915329821792	-0.1650608747467665	0.7371005688348489	0.28006054716795087	-0.15236800146927698	0.9221498315831488	0.1358976036475717	0.742712519705258	0.7076138934509497	0.12788176408920263	0.3117769801868988	0.7701804006569257	0.10130916785825676	-0.1154610029883864	0.8492936337007755	0.12634683863876	-0.18397142314604295	0.6967146397923824	0.07598353649020168	-0.14218169339730924	0.6846494302322017	0.11542797512235424	-0.17989264298581178	0.9209770343903182	0.23150951885955834	1.3556448506550782	0.6945190882138111	0.23781749722292592	1.6089211813644657	0.5932680839968065	0.2479480969367404	1.4967015298164572	0.5654700566342075	0.4079337609099202	1.2638176378805706	0.7196402122048914	0.47557712329142615	0.9918661469985384	0.8271293866006784	0.4812411491667117	0.7610905719237353	0.6523818422597185	0.44690217450464953	0.6767730248463824	0.5652363843381581	0.4546716531768915	0.6452467324485621	0.5804637632249895	0.4466210880598413	0.6243384206000057	0.699537831686509	0.07610945534856914	1.2528517407318274	0.6890262929655742	0.017913019149100533	0.9745894766890885	0.7556184750920582	-0.01714720610697735	0.7194080161062807	0.6441853688821376	0.03064044812589912	0.6332619735846781	0.5862288375659571	0.0030720967230180693	0.6213828531409357	0.5612958147002949	-0.011143392309243754	0.5952372354596338	0.64663858720554	
198	3.3	0.34155124386273805	0.7577332233089762	0.7197673921275738	0.3364589982057385	0.3068385770836153	0.7800658567777694	0.2948661942920544	-0.12095708082378405	0.9107401310858704	0.3031986304926385	-0.13706574411855826	0.6626258505123406	0.3555258920854196	-0.165355395573768	0.7386625575743874	0.27999983746984597	-0.15200648352728047	0.9223341681199383	0.13441209965172693	0.7434300777981392	0.7066516562920399	0.1272112528537193	0.31323178365926146	0.7684314824227884	0.1011442296425148	-0.11578382266877738	0.8497056548407351	0.12694341867918052	-0.1828309319919148	0.6953903380409321	0.07721836269964696	-0.14043898493897616	0.6826811660294131	0.11499612108543038	-0.1802800015545313	0.9208276771215594	0.22894494774361202	1.355496699568317	0.692101305504305	0.23559849435097344	1.6088424921287652	0.5966954111519178	0.2467547042152402	1.4963993190730136	0.5668664944986345	0.4072227710869998	1.2637975347299384	0.7195589285579208	0.4756080350123877	0.9932006687896481	0.8263572707619213	0.47797014319250675	0.7617032926119859	0.6514397990432123	0.44414400352583194	0.6799504255281169	0.5591953178497298	0.4510251961622083	0.6499254837285815	0.5710921072814068	0.4420447383285239	0.6276002179974111	0.6929611765697187	0.07498004451614151	1.2518854282731726	0.6906735570951776	0.015685402469999506	0.9758573480084707	0.7484197850620458	-0.015826269061085377	0.7215302541270167	0.6366997191256699	0.03471143540257905	0.6384896719713615	0.5714214281425383	0.00984912853108938	0.6287668091694826	0.5381356331750562	-0.010639967545922658	0.5985316309364528	0.6372607066363265	
199	3.316666666666667	0.34088460625413786	0.7586611116562205	0.7195742840507029	0.33621433647448995	0.30735334962280775	0.7799568516079387	0.2944336974835553	-0.12057838373944646	0.9108733363835124	0.30296392302031677	-0.13675511109980662	0.6627429042095977	0.3555703191572621	-0.16480105885471902	0.7390690287082972	0.2799658755401159	-0.15176041076768118	0.9225597569426905	0.13291093768858497	0.7441327770236816	0.7062364429244984	0.12640544228461217	0.31501797605966275	0.7666281282591096	0.10111964568125256	-0.11600946374668758	0.8503363900742148	0.1271869305824337	-0.18214775317309168	0.6951203176109224	0.07832891680134861	-0.1389600648926995	0.6811737539656866	0.11460649971567403	-0.18066038471283052	0.9208139411411818	0.22668018567888867	1.3555952773149034	0.6894529854968209	0.23337456863986705	1.6089543039321237	0.6009153201825305	0.245642183046075	1.4962624648006788	0.5691705562544362	0.40637930456336735	1.2635278598742576	0.7195495301502063	0.47554276020554154	0.9944533040243851	0.8256086398338953	0.47459319116481075	0.7622927978869195	0.6507708191275554	0.44133270340546327	0.6823460579697879	0.5554441418614333	0.44791656695690124	0.6550860382798083	0.5640812670240583	0.43725387188282144	0.6320229749396633	0.684237979310434	0.07353431835395326	1.2509120947001453	0.6928034395731895	0.013282148871927572	0.9777214733419324	0.7396137744474984	-0.014711532874642712	0.7244662285153703	0.6284229553326243	0.03732120510122529	0.6429075531633424	0.5602123504273124	0.016496487841158772	0.6351273784358283	0.5189596128366061	-0.009929079527732018	0.6022425433644945	0.6272563257169217	
